<svg width="669" height="253" viewBox="0 0 669 253" fill="none" xmlns="http://www.w3.org/2000/svg">
<g clip-path="url(#clip0_0_509)">
<path d="M94.0691 68.2828H150.264V114.513H171.664V0.162964H150.264V48.353H94.0691V0.162964H72.506V114.513H94.0691V68.2828Z" fill="#FF963C"/>
<path fill-rule="evenodd" clip-rule="evenodd" d="M230.728 116.474C242.979 116.474 256.865 112.225 265.359 103.405L252.617 90.8261C248.043 95.5637 238.405 98.3403 231.054 98.3403C217.006 98.3403 208.348 91.1526 207.041 81.1879H269.933C273.037 48.0267 256.211 31.364 229.257 31.364C203.12 31.364 186.458 49.0067 186.458 73.5103C186.458 99.3208 202.957 116.474 230.728 116.474ZM229.911 49.0067C241.346 49.0067 249.514 54.2344 250.821 64.689H207.368C210.308 54.2344 219.129 49.0067 229.911 49.0067Z" fill="#FF963C"/>
<path fill-rule="evenodd" clip-rule="evenodd" d="M324.69 116.8C333.674 116.637 346.253 112.062 350.827 102.588L351.807 114.35H370.593V33.8146H351.48L350.827 44.9232C346.253 36.9187 335.962 31.8544 325.18 31.8544C301.657 31.6912 283.197 46.2299 283.197 74.0007C283.197 102.261 300.84 116.963 324.69 116.8H324.69ZM326.976 49.6605C358.341 49.6605 358.341 98.5037 326.976 98.5037C313.745 98.5037 303.127 89.3563 303.127 74.0007C303.127 58.6448 313.745 49.6605 326.976 49.6605Z" fill="#FF963C"/>
<rect x="387.281" y="0.16333" width="19.7661" height="114.186" fill="#FF963C"/>
<path d="M512.294 73.184C512.294 61.0952 520.461 51.1305 532.223 51.1305C542.841 51.1305 550.519 57.3381 550.519 72.0402V114.35H570.448V71.877C570.448 48.1902 560.32 32.6713 537.45 32.6713C528.302 32.6713 519.481 35.4485 512.294 44.7596V0H492.364V114.35H512.294V73.184Z" fill="#FF963C"/>
<path d="M435.738 85.9254C435.738 106.019 447.173 115.983 464.652 115.33C470.696 115.167 475.433 114.186 481.151 111.899L475.597 94.9105C472.657 96.3805 469.062 97.3605 465.959 97.3605C459.751 97.3605 455.504 93.6034 455.504 85.9254V51.1306H477.884V33.978H455.667V14.339H435.738V33.978H420.709V51.1306H435.738L435.738 85.9254Z" fill="#FF963C"/>
<path d="M647.206 31.853L624.63 84.6222L602.151 31.853H580.371L613.717 110.131L566.872 219.629L484.878 147.205L0 147.248V167.281L477.353 167.29L574.073 253L669 31.853H647.206Z" fill="#FF963C"/>
</g>
<defs>
<clipPath id="clip0_0_509">
<rect width="669" height="253" fill="white"/>
</clipPath>
</defs>
</svg>
